<svg width="104" height="80" viewBox="0 0 104 80" fill="none" xmlns="http://www.w3.org/2000/svg">
<path d="M43 11L33.56 39H30.44L22.24 15.12L14 39H10.92L1.48 11H4.52L12.6 35.08L20.96 11H23.72L31.96 35.2L40.16 11H43ZM47.71 17.96H50.55V39H47.71V17.96ZM49.15 13.36C48.5633 13.36 48.07 13.16 47.67 12.76C47.27 12.36 47.07 11.88 47.07 11.32C47.07 10.7867 47.27 10.32 47.67 9.92C48.07 9.52 48.5633 9.32 49.15 9.32C49.7367 9.32 50.23 9.52 50.63 9.92C51.03 10.2933 51.23 10.7467 51.23 11.28C51.23 11.8667 51.03 12.36 50.63 12.76C50.23 13.16 49.7367 13.36 49.15 13.36ZM69.5322 37.72C68.9989 38.2 68.3322 38.5733 67.5322 38.84C66.7589 39.08 65.9455 39.2 65.0922 39.2C63.1189 39.2 61.5989 38.6667 60.5322 37.6C59.4655 36.5333 58.9322 35.0267 58.9322 33.08V20.36H55.1722V17.96H58.9322V13.36H61.7722V17.96H68.1722V20.36H61.7722V32.92C61.7722 34.1733 62.0789 35.1333 62.6922 35.8C63.3322 36.44 64.2389 36.76 65.4122 36.76C65.9989 36.76 66.5589 36.6667 67.0922 36.48C67.6522 36.2933 68.1322 36.0267 68.5322 35.68L69.5322 37.72ZM85.4222 17.8C88.0622 17.8 90.1555 18.5733 91.7022 20.12C93.2755 21.64 94.0622 23.8667 94.0622 26.8V39H91.2222V27.08C91.2222 24.8933 90.6755 23.2267 89.5822 22.08C88.4889 20.9333 86.9289 20.36 84.9022 20.36C82.6355 20.36 80.8355 21.04 79.5022 22.4C78.1955 23.7333 77.5422 25.5867 77.5422 27.96V39H74.7022V9.32H77.5422V21.64C78.3155 20.4133 79.3822 19.4667 80.7422 18.8C82.1022 18.1333 83.6622 17.8 85.4222 17.8Z" fill="black"/>
<path d="M65.28 57.36H47.68C47.84 59.5467 48.68 61.32 50.2 62.68C51.72 64.0133 53.64 64.68 55.96 64.68C57.2667 64.68 58.4667 64.4533 59.56 64C60.6533 63.52 61.6 62.8267 62.4 61.92L64 63.76C63.0667 64.88 61.8933 65.7333 60.48 66.32C59.0933 66.9067 57.56 67.2 55.88 67.2C53.72 67.2 51.8 66.7467 50.12 65.84C48.4667 64.9067 47.1733 63.6267 46.24 62C45.3067 60.3733 44.84 58.5333 44.84 56.48C44.84 54.4267 45.28 52.5867 46.16 50.96C47.0667 49.3333 48.2933 48.0667 49.84 47.16C51.4133 46.2533 53.1733 45.8 55.12 45.8C57.0667 45.8 58.8133 46.2533 60.36 47.16C61.9067 48.0667 63.12 49.3333 64 50.96C64.88 52.56 65.32 54.4 65.32 56.48L65.28 57.36ZM55.12 48.24C53.0933 48.24 51.3867 48.8933 50 50.2C48.64 51.48 47.8667 53.16 47.68 55.24H62.6C62.4133 53.16 61.6267 51.48 60.24 50.2C58.88 48.8933 57.1733 48.24 55.12 48.24Z" fill="black"/>
<path d="M43 66.7478L33.56 38.7478H30.44L22.24 62.6278L14 38.7478H10.92L1.48 66.7478H4.52L12.6 42.6678L20.96 66.7478H23.72L31.96 42.5478L40.16 66.7478H43Z" fill="black"/>
</svg>
